<svg xmlns="http://www.w3.org/2000/svg" xmlns:xlink="http://www.w3.org/1999/xlink"><symbol id="my-sprite">
  <symbol id="check" width="13" height="10" viewBox="0 0 13 10" fill="#64b851">
    <g>
        <path fill-rule="evenodd" clip-rule="evenodd" d="M11.9993 1.02216C12.3895 1.41273 12.3894 2.04567 11.999 2.43608L5.46823 8.96685C5.08965 9.34543 4.48006 9.35868 4.0854 8.9969L0.825921 6.00904C0.405357 5.62353 0.392041 4.96484 0.796682 4.56264C1.17557 4.18604 1.78357 4.17375 2.17737 4.53474L4.37815 6.55211C4.57548 6.733 4.88027 6.72638 5.06956 6.53709L10.5848 1.02187C10.9754 0.631232 11.6088 0.631362 11.9993 1.02216Z" fill="#64B851"/>
    </g>
</symbol>
<symbol id="cross" width="12" height="12" viewBox="0 0 12 12" fill="eb4b51">
    <g>
        <path fill-rule="evenodd" clip-rule="evenodd" d="M9.53556 1.05022C9.92608 0.659693 10.5592 0.659693 10.9498 1.05022C11.3403 1.44074 11.3403 2.07391 10.9498 2.46443L7.41424 5.99996L10.9498 9.5355C11.3403 9.92602 11.3403 10.5592 10.9498 10.9497C10.5592 11.3402 9.92608 11.3402 9.53556 10.9497L6.00003 7.41418L2.46449 10.9497C2.07397 11.3402 1.4408 11.3402 1.05028 10.9497C0.659754 10.5592 0.659754 9.92602 1.05028 9.5355L4.58581 5.99996L1.05028 2.46443C0.659754 2.07391 0.659754 1.44074 1.05028 1.05022C1.4408 0.659693 2.07397 0.659693 2.46449 1.05022L6.00003 4.58575L9.53556 1.05022Z" fill="#EB4B51"/>
    </g>
</symbol>
<symbol id="seach" width="16" height="16" viewBox="0 0 16 16" fill="#383736">
    <g>
        <path fill-rule="evenodd" clip-rule="evenodd" d="M9.68294 7.5634C9.88707 7.08313 10 6.55475 10 6C10 3.79086 8.20914 2 6 2C3.79086 2 2 3.79086 2 6C2 8.20914 3.79086 10 6 10C6.55379 10 7.0813 9.88746 7.5609 9.684L8.68825 10.8113C8.74736 10.8705 8.83209 10.8961 8.91406 10.8797L10.1826 10.626C10.3576 10.591 10.5119 10.7454 10.4768 10.9204L10.2698 11.9514C10.2347 12.1263 10.3888 12.2806 10.5637 12.2458L11.5975 12.0398C11.7723 12.005 11.9264 12.1591 11.8915 12.334L11.6379 13.6036C11.6215 13.6856 11.6472 13.7703 11.7063 13.8294L11.8474 13.9705C11.9239 14.047 12.0231 14.0966 12.1302 14.1119L13.1202 14.2533C13.7802 14.3476 14.3458 13.7819 14.2516 13.122L14.1101 12.132C14.0948 12.0249 14.0452 11.9257 13.9687 11.8492L9.68294 7.5634ZM5.5 7C6.32843 7 7 6.32843 7 5.5C7 4.67157 6.32843 4 5.5 4C4.67157 4 4 4.67157 4 5.5C4 6.32843 4.67157 7 5.5 7Z" fill="#383736"/>
    </g>
    </symbol>
</symbol></svg>